<?xml version="1.0" standalone="no"?><!DOCTYPE svg PUBLIC "-//W3C//DTD SVG 1.1//EN" "http://www.w3.org/Graphics/SVG/1.1/DTD/svg11.dtd"><svg class="icon" width="200px" height="200.00px" viewBox="0 0 1024 1024" version="1.1" xmlns="http://www.w3.org/2000/svg"><path d="M824.363 441.364H580.637V197.636c0-38.457-31.18-69.636-69.637-69.636-38.458 0-69.636 31.179-69.636 69.636v243.728H197.636C159.179 441.364 128 472.542 128 511c0 38.457 31.179 69.637 69.636 69.637h243.728v243.727C441.364 862.821 472.542 894 511 894c38.457 0 69.637-31.179 69.637-69.637V580.637h243.727c38.458 0 69.637-31.18 69.637-69.637-0.001-38.458-31.18-69.636-69.638-69.636z" fill="#ffffff" /></svg>