<?xml version="1.0" standalone="no"?><!DOCTYPE svg PUBLIC "-//W3C//DTD SVG 1.1//EN" "http://www.w3.org/Graphics/SVG/1.1/DTD/svg11.dtd"><svg class="icon" width="200px" height="200.00px" viewBox="0 0 1024 1024" version="1.1" xmlns="http://www.w3.org/2000/svg"><path d="M79.277 370.145l342.807 202.312c28.1 16.859 59.009 25.288 89.919 25.288 30.909 0 61.818-8.429 89.914-25.288l342.806-202.312c19.671-11.237 22.479-42.146 0-56.197L593.487 89.156c-25.288-16.858-53.389-25.288-81.484-25.288-28.101 0-56.202 8.43-81.49 25.288L79.277 313.948c-22.479 14.051-19.667 44.96 0 56.197z m382.146-236.029c14.049-8.43 30.909-14.051 50.58-14.051 19.667 0 36.525 5.621 50.576 14.051l317.518 205.121-309.09 182.645c-19.667 11.238-39.337 16.859-61.818 16.859-22.479 0-42.146-5.621-61.817-16.859L138.287 339.236l323.136-205.12z m0 0" fill="#1296db" /><path d="M76.469 541.548L422.084 757.91c28.1 16.859 59.009 25.288 89.919 25.288 30.909 0 61.818-8.429 89.914-25.288l345.614-216.362c8.43-5.621 14.05-14.05 14.05-22.479 0-22.48-25.288-36.526-42.146-22.48L573.82 712.951c-19.671 11.243-39.343 16.859-61.818 16.859-22.48 0-42.152-5.616-61.819-16.859l-345.619-219.17c-16.858-14.051-42.146 0-42.146 22.479 0.001 11.237 5.622 19.667 14.051 25.288z m0 0" fill="#1296db" /><path d="M919.435 673.614L573.82 889.976c-19.671 11.237-39.343 16.858-61.818 16.858-22.48 0-42.152-5.621-61.819-16.858L104.565 673.614c-16.858-14.051-42.146 0-42.146 22.479 0 8.43 5.621 19.671 14.051 22.479l345.615 216.363c28.1 16.858 59.009 25.288 89.919 25.288 30.909 0 61.818-8.43 89.914-25.288l345.614-216.363c8.43-5.621 14.05-14.049 14.05-22.479-0.001-22.479-25.289-36.53-42.147-22.479z m0 0" fill="#1296db" /></svg>