<?xml version="1.0" standalone="no"?><!DOCTYPE svg PUBLIC "-//W3C//DTD SVG 1.1//EN" "http://www.w3.org/Graphics/SVG/1.1/DTD/svg11.dtd"><svg class="icon" width="200px" height="188.24px" viewBox="0 0 1088 1024" version="1.1" xmlns="http://www.w3.org/2000/svg"><path d="M934.528 610.688v-56.512c0-57.408-48.128-104-107.072-104H574.336V356.672c88.064-13.696 155.712-87.808 155.712-177.088C730.048 80.576 647.04 0 545.088 0c-101.952 0-184.96 80.576-184.96 179.584 0 89.408 67.712 163.52 155.776 177.088v93.504H262.784c-59.072 0-107.072 46.72-107.072 104v56.128C67.648 624.064 0 698.112 0 787.584c0 98.944 82.944 179.52 184.96 179.52 101.952 0 184.896-80.576 184.896-179.584 0-89.408-67.648-163.456-155.712-177.088V554.24a48 48 0 0 1 48.64-47.232h564.544c26.88 0 48.64 21.248 48.64 47.232v55.872c-89.152 12.736-157.952 87.36-157.952 177.408 0 99.008 83.008 179.584 184.96 179.584 101.952 0 185.024-80.576 185.024-179.584 0-88.64-66.56-162.304-153.472-176.832zM418.496 179.584c0-67.712 56.768-122.88 126.528-122.88s126.464 55.168 126.464 122.88c0 67.712-56.768 122.88-126.464 122.88-69.76 0-126.528-55.168-126.528-122.88z m-107.072 608c0 67.712-56.768 122.816-126.528 122.816s-126.464-55.104-126.464-122.88c0-67.712 56.768-122.88 126.464-122.88 69.76 0 126.528 55.168 126.528 122.88z m591.68 122.816c-69.76 0-126.528-55.104-126.528-122.88 0-67.712 56.768-122.88 126.528-122.88s126.464 55.168 126.464 122.88c0 67.776-56.768 122.88-126.464 122.88z" fill="#7dc5eb" /></svg>