<?xml version="1.0" standalone="no"?><!DOCTYPE svg PUBLIC "-//W3C//DTD SVG 1.1//EN" "http://www.w3.org/Graphics/SVG/1.1/DTD/svg11.dtd"><svg class="icon" width="200px" height="200.00px" viewBox="0 0 1024 1024" version="1.1" xmlns="http://www.w3.org/2000/svg"><path d="M833.828571 687.542857c-16.091429 0-29.257143-13.165714-29.257142-29.257143v-87.771428H219.428571v87.771428c0 16.091429-13.165714 29.257143-29.257142 29.257143s-29.257143-13.165714-29.257143-29.257143v-87.771428c0-32.182857 26.331429-58.514286 58.514285-58.514286h585.142858c32.182857 0 58.514286 26.331429 58.514285 58.514286v87.771428c0 16.091429-13.165714 29.257143-29.257143 29.257143z" fill="#1296db" /><path d="M485.668571 424.228571h58.514286v248.685715h-58.514286z" fill="#1296db" /><path d="M892.342857 877.714286h-117.028571c-32.182857 0-58.514286-26.331429-58.514286-58.514286v-117.028571c0-32.182857 26.331429-58.514286 58.514286-58.514286h117.028571c32.182857 0 58.514286 26.331429 58.514286 58.514286v117.028571c0 32.182857-26.331429 58.514286-58.514286 58.514286z m-117.028571-175.542857v117.028571h117.028571v-117.028571h-117.028571zM570.514286 877.714286h-117.028572c-32.182857 0-58.514286-26.331429-58.514285-58.514286v-117.028571c0-32.182857 26.331429-58.514286 58.514285-58.514286h117.028572c32.182857 0 58.514286 26.331429 58.514285 58.514286v117.028571c0 32.182857-26.331429 58.514286-58.514285 58.514286z m-117.028572-175.542857v117.028571h117.028572v-117.028571h-117.028572zM248.685714 877.714286H131.657143c-32.182857 0-58.514286-26.331429-58.514286-58.514286v-117.028571c0-32.182857 26.331429-58.514286 58.514286-58.514286h117.028571c32.182857 0 58.514286 26.331429 58.514286 58.514286v117.028571c0 32.182857-26.331429 58.514286-58.514286 58.514286zM131.657143 702.171429v117.028571h117.028571v-117.028571H131.657143z m526.628571-263.314286H365.714286c-32.182857 0-58.514286-26.331429-58.514286-58.514286V204.8c0-32.182857 26.331429-58.514286 58.514286-58.514286h292.571428c32.182857 0 58.514286 26.331429 58.514286 58.514286v175.542857c0 32.182857-26.331429 58.514286-58.514286 58.514286zM365.714286 204.8v175.542857h292.571428V204.8H365.714286z" fill="#1296db" /></svg>