<?xml version="1.0" standalone="no"?><!DOCTYPE svg PUBLIC "-//W3C//DTD SVG 1.1//EN" "http://www.w3.org/Graphics/SVG/1.1/DTD/svg11.dtd"><svg t="1547713833033" class="icon" style="" viewBox="0 0 1024 1024" version="1.1" xmlns="http://www.w3.org/2000/svg" p-id="6785" xmlns:xlink="http://www.w3.org/1999/xlink" width="200" height="200"><defs><style type="text/css"></style></defs><path d="M543.677 400.11c7.136-0.289 11.877-0.483 14.223-0.584 61.818-2.65 108.832-5.842 141.043-9.574 2.434-0.282 5.404-0.655 8.909-1.12a8 8 0 0 1 8.974 6.834c0.842 6.074 1.476 10.914 1.904 14.52 3.79 31.96 5.683 65.754 5.683 101.397 0 32.888-1.612 64.2-4.838 93.951-0.225 2.07-0.532 4.72-0.92 7.951a8 8 0 0 1-8.993 6.974c-1.902-0.251-3.514-0.46-4.834-0.627-45.49-5.74-96.546-9.103-153.205-10.145-1.989-0.037-4.567-0.077-7.736-0.122a8 8 0 0 1-7.887-8v-9.728-164.669-19.065a8 8 0 0 1 7.677-7.993zM305.616 613.586c-0.44-3.66-0.785-6.642-1.032-8.949-3.162-29.483-4.742-60.496-4.742-93.054 0-37.018 2.043-72.04 6.13-105.087 0.347-2.8 0.84-6.484 1.48-11.054a8 8 0 0 1 9.045-6.812 938.46 938.46 0 0 0 9.843 1.353c43.064 5.624 91.2 8.98 144.436 10.121 2.36 0.05 5.478 0.107 9.353 0.17a8 8 0 0 1 7.871 7.999v193.306a8 8 0 0 1-7.884 8c-2.642 0.038-4.816 0.073-6.52 0.104-56.197 1.028-106.884 4.338-152.098 9.984a916.32 916.32 0 0 0-6.886 0.893 8 8 0 0 1-8.996-6.974zM488 88.17v255.475a8 8 0 0 1-8.132 7.999l-1.976-0.034c-54.356-0.99-102.937-4.314-145.704-9.913-1.58-0.207-3.522-0.47-5.827-0.79a8 8 0 0 1-6.671-9.817c0.404-1.662 0.755-3.076 1.051-4.243 26.303-103.538 77.446-183.284 153.504-240.066 1.246-0.93 2.765-2.04 4.558-3.328A5.808 5.808 0 0 1 488 88.17z m48-0.459a5.66 5.66 0 0 1 8.959-4.599 354.817 354.817 0 0 1 6.583 4.817c73.63 55.515 123.705 132.747 150.29 232.459 0.73 2.735 1.653 6.382 2.768 10.941a8 8 0 0 1-6.685 9.828c-2.328 0.319-4.288 0.58-5.883 0.786-40.047 5.16-85.15 8.34-135.28 9.491-3.105 0.071-7.313 0.15-12.624 0.234A8 8 0 0 1 536 343.67v-10.915V87.71zM323.122 667.89c4.9-0.635 8.869-1.131 11.91-1.488 41.184-4.827 87.444-7.746 138.746-8.71 1.61-0.03 3.643-0.064 6.101-0.101a8 8 0 0 1 8.121 7.999V930.65a8 8 0 0 1-12.727 6.455 309.664 309.664 0 0 1-5.901-4.415c-74.818-57.64-124.834-138.16-150.123-242.38-0.764-3.146-1.734-7.404-2.912-12.773a8 8 0 0 1 6.785-9.648z m384.826 9.546a602.753 602.753 0 0 1-2.463 10.887C680.595 792.488 631.145 873.11 557.063 931c-2.199 1.718-4.978 3.806-8.338 6.265A8 8 0 0 1 536 930.81v-3.307-251.135-10.788a8 8 0 0 1 8.122-8c5.384 0.082 9.648 0.158 12.791 0.226 49.02 1.067 93.369 3.944 133.014 8.59 2.88 0.336 6.622 0.802 11.23 1.397a8 8 0 0 1 6.79 9.642z m64.465-165.852c0-36.64-1.917-71.605-5.75-104.882-0.56-4.854-1.431-11.538-2.614-20.05a8 8 0 0 1 6.188-8.91 607.697 607.697 0 0 0 7.368-1.676c52.655-12.427 94.781-29.652 126.477-51.835l3.303-2.311a8 8 0 0 1 11.85 3.2c1.831 3.967 3.287 7.202 4.366 9.705C947.024 389.165 960 449.067 960 512c0 57.261-10.743 112.013-30.323 162.35a400.234 400.234 0 0 1-3.069 7.6 8 8 0 0 1-11.844 3.59l-2.354-1.577c-33.05-22.133-77.224-39.222-132.632-51.427-1.904-0.42-4.402-0.95-7.494-1.593a8 8 0 0 1-6.314-8.807 819.86 819.86 0 0 0 1.207-10.252c3.49-31.9 5.236-65.338 5.236-100.3z m-118.56-424.66c91.24 30.433 169.418 89.42 223.935 166.357 2.358 3.328 5.496 7.974 9.414 13.937a8 8 0 0 1-2.099 10.947l-8.901 6.23c-25.307 17.71-59.868 32.043-103.607 42.872-2.631 0.651-6.203 1.489-10.717 2.512a8 8 0 0 1-9.558-5.977 558.43 558.43 0 0 0-1.357-5.682c-23.013-93.63-64.533-170.8-124.52-231.06a4.209 4.209 0 0 1 4.093-7.029c9.816 2.684 17.588 4.982 23.317 6.893z m111.228 591.583a633 633 0 0 1 10.258 2.247c46.537 10.734 83.185 25.095 109.854 42.954l9.552 6.397a8 8 0 0 1 2.418 10.747c-2.98 4.993-5.381 8.919-7.204 11.776-55.089 86.35-138.956 152.556-238.087 185.106-3.858 1.267-8.66 2.71-14.404 4.33a6.448 6.448 0 0 1-6.389-10.684c59.226-61.343 99.86-139.698 121.86-234.611 0.691-2.98 1.576-7.012 2.655-12.097a8 8 0 0 1 9.486-6.165h0.001z m-652.48 5.457l-3.165 2.12a8 8 0 0 1-11.838-3.575 309.494 309.494 0 0 1-1.244-3.031C75.487 627.739 64 571.211 64 512c0-62.727 12.892-122.444 36.17-176.644 1.243-2.894 2.952-6.682 5.126-11.365a8 8 0 0 1 11.843-3.185l4.893 3.424c30.756 21.525 71.334 38.383 121.823 50.717 2.52 0.615 5.93 1.41 10.234 2.383a8 8 0 0 1 6.156 8.926 829.512 829.512 0 0 0-1.706 12.579c-4.464 35.62-6.697 73.21-6.697 112.748 0 35.675 1.818 69.762 5.452 102.249a779.43 779.43 0 0 0 1.006 8.452 8 8 0 0 1-6.307 8.811c-2.75 0.574-4.987 1.05-6.711 1.43-55.43 12.206-99.62 29.3-132.68 51.438z m286.5-598.193c-61.295 61.058-103.478 139.621-126.506 235.215-0.168 0.7-0.36 1.51-0.577 2.43a8 8 0 0 1-9.569 5.97 499.966 499.966 0 0 1-5.724-1.336c-45.26-10.917-80.891-25.514-106.813-43.655l-10.377-7.263a8 8 0 0 1-2.103-10.94 439.608 439.608 0 0 1 4.974-7.454c55.236-80.453 136.06-141.965 230.733-172.8 5.461-1.78 12.903-3.937 22.324-6.474a3.767 3.767 0 0 1 3.638 6.307zM129.527 730.6l10.292-6.893c26.598-17.811 63.122-32.144 109.483-42.868a624.58 624.58 0 0 1 9.894-2.177 8 8 0 0 1 9.496 6.163c1 4.713 1.821 8.465 2.465 11.256 21.867 94.804 62.294 173.118 121.24 234.489l0.217 0.225a6.77 6.77 0 0 1-6.779 11.195C279.293 910.78 189.21 841.048 131.687 748.896a439.811 439.811 0 0 1-4.582-7.557 8 8 0 0 1 2.422-10.74z" p-id="6786"></path></svg>