<?xml version="1.0" standalone="no"?><!DOCTYPE svg PUBLIC "-//W3C//DTD SVG 1.1//EN" "http://www.w3.org/Graphics/SVG/1.1/DTD/svg11.dtd"><svg class="icon" width="200px" height="200.00px" viewBox="0 0 1024 1024" version="1.1" xmlns="http://www.w3.org/2000/svg"><path d="M740.9664 946.9952c-53.248 0-104.0384-20.0704-142.5408-56.9344l-2.048-1.6384-2.048-2.048c-38.912-38.912-60.6208-90.9312-60.6208-146.2272v-181.8624c0-13.9264 11.0592-24.9856 24.9856-24.9856 13.9264 0 24.9856 11.0592 24.9856 24.9856v181.8624c0 41.7792 16.384 81.1008 45.8752 111.0016l1.6384 1.6384c29.4912 28.672 68.4032 44.2368 109.3632 44.2368 41.7792 0 81.5104-16.384 111.0016-45.8752 29.4912-29.4912 45.8752-68.8128 45.8752-111.0016 0-41.3696-15.9744-80.2816-44.6464-109.7728l-1.2288-0.8192c-29.4912-29.4912-69.2224-45.8752-111.0016-45.8752h-61.8496c-13.9264 0-24.9856-11.0592-24.9856-24.9856 0-13.9264 11.0592-24.9856 24.9856-24.9856h61.8496c55.296 0 107.3152 21.2992 146.2272 60.6208l1.2288 1.6384c38.0928 38.912 59.392 90.112 59.392 144.5888 0 55.296-21.7088 106.9056-60.6208 145.8176-38.912 39.3216-90.9312 60.6208-145.8176 60.6208z m-457.9328 0c-54.4768 0-106.0864-20.8896-144.9984-59.392l-1.2288-1.2288c-39.3216-38.912-60.6208-90.9312-60.6208-146.2272 0-55.296 21.7088-106.9056 60.6208-146.2272 38.912-38.912 90.9312-60.6208 146.2272-60.6208h181.8624c13.9264 0 24.9856 11.0592 24.9856 24.9856v181.8624c0 55.296-21.7088 106.9056-60.6208 145.8176-38.912 39.7312-90.9312 61.0304-146.2272 61.0304z m0-363.3152c-41.7792 0-81.5104 16.384-111.0016 45.8752-29.4912 29.4912-45.8752 68.8128-45.8752 111.0016 0 41.7792 16.384 81.1008 45.8752 111.0016l1.2288 1.2288c29.4912 28.672 68.4032 44.6464 109.7728 44.6464 42.1888 0 81.5104-16.384 111.0016-45.8752 29.4912-29.4912 45.8752-68.8128 45.8752-111.0016v-156.8768H283.0336z m276.0704-93.7984c-13.9264 0-24.9856-11.0592-24.9856-24.9856V283.4432c0-55.296 21.7088-106.9056 60.6208-146.2272 38.912-38.912 90.9312-60.6208 146.2272-60.6208 55.296 0 107.3152 21.2992 146.2272 60.6208l2.4576 2.4576 1.2288 1.6384c36.4544 38.5024 56.9344 88.8832 56.9344 142.1312 0 55.296-21.7088 106.9056-60.6208 145.8176-39.3216 38.912-90.9312 60.6208-146.2272 60.6208h-181.8624z m181.8624-363.3152c-41.7792 0-81.5104 16.384-111.0016 45.8752-29.4912 29.4912-45.8752 68.8128-45.8752 111.0016v156.8768h156.8768c41.7792 0 81.5104-16.384 111.0016-45.8752 29.4912-29.4912 45.8752-68.8128 45.8752-111.0016 0-41.3696-15.9744-80.2816-44.6464-109.7728l-1.2288-1.2288c-29.9008-29.4912-69.2224-45.8752-111.0016-45.8752zM283.0336 489.8816c-53.248 0-104.0384-20.0704-142.5408-56.9344l-2.048-2.048-1.6384-1.6384c-38.912-38.912-60.6208-90.9312-60.6208-146.2272 0-55.296 21.7088-106.9056 60.6208-146.2272C176.128 98.304 227.7376 77.0048 283.0336 77.0048s107.3152 21.2992 146.2272 60.6208l1.2288 1.6384c38.0928 38.912 58.9824 90.112 58.9824 144.5888v181.8624c0 13.9264-11.0592 24.9856-24.9856 24.9856l-181.4528-0.8192z m0-363.3152c-41.7792 0-81.5104 16.384-111.0016 45.8752-29.4912 29.9008-45.8752 69.2224-45.8752 111.0016 0 41.7792 16.384 81.1008 45.8752 111.0016l1.6384 1.6384c29.4912 28.672 68.4032 44.2368 109.3632 44.2368h156.8768V283.4432c0-41.3696-15.9744-80.2816-44.6464-109.7728l-1.2288-0.8192C364.544 142.9504 325.2224 126.5664 283.0336 126.5664z" fill="#ffffff" /></svg>