<?xml version="1.0" standalone="no"?><!DOCTYPE svg PUBLIC "-//W3C//DTD SVG 1.1//EN" "http://www.w3.org/Graphics/SVG/1.1/DTD/svg11.dtd"><svg class="icon" width="200px" height="200.00px" viewBox="0 0 1024 1024" version="1.1" xmlns="http://www.w3.org/2000/svg"><path d="M877.714286 682.666667h73.142857a48.761905 48.761905 0 0 1 48.761905 48.761904v195.047619a48.761905 48.761905 0 0 1-48.761905 48.761905h-195.047619a48.761905 48.761905 0 0 1-48.761905-48.761905v-195.047619a48.761905 48.761905 0 0 1 48.761905-48.761904h73.142857v-97.52381c0-26.575238-22.966857-48.761905-52.126476-48.761905H536.380952v146.285715h73.142858a48.761905 48.761905 0 0 1 48.761904 48.761904v195.047619a48.761905 48.761905 0 0 1-48.761904 48.761905h-195.04762a48.761905 48.761905 0 0 1-48.761904-48.761905v-195.047619a48.761905 48.761905 0 0 1 48.761904-48.761904h73.142858v-146.285715h-240.444953C218.014476 536.380952 195.047619 558.567619 195.047619 585.142857v97.52381h73.142857a48.761905 48.761905 0 0 1 48.761905 48.761904v195.047619a48.761905 48.761905 0 0 1-48.761905 48.761905H73.142857a48.761905 48.761905 0 0 1-48.761905-48.761905v-195.047619a48.761905 48.761905 0 0 1 48.761905-48.761904h73.142857v-97.52381c0-53.881905 45.177905-97.52381 100.888381-97.523809H487.619048v-146.285715h-73.142858a48.761905 48.761905 0 0 1-48.761904-48.761904V97.52381a48.761905 48.761905 0 0 1 48.761904-48.761905h195.04762a48.761905 48.761905 0 0 1 48.761904 48.761905v195.047619a48.761905 48.761905 0 0 1-48.761904 48.761904h-73.142858v146.285715h240.444953C832.536381 487.619048 877.714286 531.260952 877.714286 585.142857v97.52381z" fill="#ffffff" /></svg>