<?xml version="1.0" standalone="no"?><!DOCTYPE svg PUBLIC "-//W3C//DTD SVG 1.1//EN" "http://www.w3.org/Graphics/SVG/1.1/DTD/svg11.dtd"><svg class="icon" width="200px" height="200.00px" viewBox="0 0 1024 1024" version="1.1" xmlns="http://www.w3.org/2000/svg"><path d="M618.408704 431.7696a342.528 342.528 0 0 1 134.1952-27.1872c4.608 0 9.1904 0.2048 13.7984 0.2048 21.8112-55.1936 27.392-120.3712 16.4096-183.7568C757.416704 75.6736 620.200704-21.504 476.021504 4.096c-144 25.6-265.6 137.5744-240 282.9312 5.4016 31.3856 20.608 80.384 38.6048 115.7632L13.019904 780.0832c-9.6 13.7984-15.2064 38.8096-12.2112 55.808l11.392 64.5632c-10.8032-62.1824 2.9952 22.4 11.392 22.1952l86.1952 1.2032c16.5888-2.9952 37.4016-16.9984 46.592-31.2064l103.3984-161.7408 0.9984-0.9984 90.3936 7.1936 120.7808-189.3376c0.4096 0 0.8192 0.2048 1.2032 0.2048 10.8032-14.7968 22.6048-28.8 35.7888-42.0096a337.8432 337.8432 0 0 1 109.4656-74.1888zM69.621504 819.8656l-12.8 5.4016 1.408-14.0032 250.5984-363.6992 15.0016 14.0032-254.208 358.2976zM450.421504 150.656c39.6032-56.9856 117.5808-71.1936 173.9776-30.976a127.232 127.232 0 0 1 30.7968 175.9488c-39.6032 56.9856-80 16.7936-136.6016-23.1936-56.3712-40.192-107.776-64.5888-68.1728-121.7792z m0 0" fill="#ffffff" /><path d="M749.224704 474.5728c-151.808 0-274.7904 122.9568-274.7904 274.7392 0 151.7568 122.9824 274.688 274.7904 274.688S1024.015104 901.0432 1024.015104 749.312c0-151.7824-123.008-274.7392-274.7904-274.7392z m158.7968 387.4816c0 41.0112-78.592 50.4064-152.3968 50.4064s-153.3952-9.3952-153.3952-50.4064v-11.3664c0-30.208 54.4-60.8 100.608-77.3888 3.4048-1.2032 19.4048-10.0096 10.3936-33.3824-22.9888-23.3984-40.192-61.3888-40.192-98.7648 0-57.1904 37.8112-87.168 82.2016-87.168 44.2112 0 82.4064 29.9776 82.4064 87.168 0 37.1968-17.408 74.9824-40.192 98.5856h0.2048c-8.8064 26.5728 5.1968 32.9728 7.3984 33.5872 48.5888 16 103.1936 46.4128 103.1936 77.3888l-0.2304 11.3408z m0 0" fill="#ffffff" /></svg>