<?xml version="1.0" standalone="no"?><!DOCTYPE svg PUBLIC "-//W3C//DTD SVG 1.1//EN" "http://www.w3.org/Graphics/SVG/1.1/DTD/svg11.dtd"><svg class="icon" width="200px" height="199.22px" viewBox="0 0 1028 1024" version="1.1" xmlns="http://www.w3.org/2000/svg"><path d="M399.36 386.048c0-32.768 26.624-53.76 59.392-53.76h117.76c32.256 0 58.88 20.992 58.88 53.76v65.024H988.16V332.288c0-65.024-52.736-117.76-117.76-117.76H693.76V140.8c0-56.832-52.736-102.912-117.76-102.912H458.24c-64.512 0-117.76 46.08-117.76 102.912v73.728H164.352c-64.512 0-117.76 52.736-117.76 117.76v119.296H399.36v-65.536z m-1.024-250.368c0-24.064 28.672-44.032 60.416-44.032h117.76c31.744 0 60.416 20.48 60.416 44.032v78.336H398.336V135.68z" fill="#ffffff" /><path d="M468.48 372.736c-12.8 0-23.04 10.24-23.04 23.04v166.4c0 12.8 10.24 23.04 23.04 23.04l97.792 0.512c12.8 0 23.552-10.24 23.552-23.04V395.776c0-12.8-10.24-23.04-23.04-23.04H468.48z" fill="#ffffff" /><path d="M635.904 507.392v65.536c0 32.256-26.112 58.88-58.88 58.88h-117.76c-32.256 0-58.88-26.112-58.88-58.88v-65.536H46.592v354.304c0 64.512 52.736 117.76 117.76 117.76H870.4c64.512 0 117.76-52.736 117.76-117.76V507.392H635.904z" fill="#ffffff" /></svg>