<?xml version="1.0" standalone="no"?><!DOCTYPE svg PUBLIC "-//W3C//DTD SVG 1.1//EN" "http://www.w3.org/Graphics/SVG/1.1/DTD/svg11.dtd"><svg class="icon" width="200px" height="200.00px" viewBox="0 0 1024 1024" version="1.1" xmlns="http://www.w3.org/2000/svg"><path d="M961.024 436.224l-336.384-358.4c-29.696-31.744-69.632-49.152-112.64-49.152-42.496 0-83.968 17.92-112.64 49.152l-336.384 358.4c-43.008 46.08-36.864 81.92-29.696 99.328 7.68 17.92 31.232 48.64 98.816 48.64h11.264v298.496c0 65.536 52.736 113.152 125.44 113.152H430.08v-339.456c0-16.384 4.608-30.72 10.24-30.72h143.36c5.632 0 10.24 14.336 10.24 30.72v339.456h160.768c71.68 0 125.952-48.64 125.952-113.152v-298.496h9.728c69.12 0 92.672-30.208 100.352-48.64 7.168-17.408 13.312-53.248-29.696-99.328zM583.68 563.712h-143.36c-49.664 0-71.68 46.592-71.68 92.672v278.016h-99.328c-37.888 0-64.512-20.992-64.512-51.712V522.24h-71.168c-32.256 0-43.008-9.216-44.032-11.264-1.536-3.072 1.536-14.848 17.92-32.768l336.384-358.4c17.408-18.944 41.984-29.696 67.584-29.696s50.176 10.752 67.584 29.696l336.384 358.4c16.384 17.408 19.456 29.696 17.92 32.768-1.024 2.56-11.776 11.264-45.056 11.264H819.2v359.936c0 30.208-26.624 51.712-64.512 51.712H655.36v-278.016c0-45.568-22.016-92.16-71.68-92.16z" fill="#1296db" /></svg>