<?xml version="1.0" standalone="no"?><!DOCTYPE svg PUBLIC "-//W3C//DTD SVG 1.1//EN" "http://www.w3.org/Graphics/SVG/1.1/DTD/svg11.dtd"><svg t="1550829321230" class="icon" style="" viewBox="0 0 1024 1024" version="1.1" xmlns="http://www.w3.org/2000/svg" p-id="1125" xmlns:xlink="http://www.w3.org/1999/xlink" width="200" height="200"><defs><style type="text/css"></style></defs><path d="M938.3 530.8l-0.3-4.2c-0.2-2.9-0.4-5.7-0.7-8.6l-0.6-4.8c-0.3-2.6-0.6-5.2-1-7.8-0.2-1.6-0.5-3.2-0.8-4.9-0.4-2.6-0.9-5.1-1.4-7.7-0.3-1.6-0.6-3.1-1-4.7-0.6-2.6-1.2-5.2-1.8-7.7-0.4-1.5-0.7-2.9-1.1-4.3-0.7-2.7-1.5-5.4-2.3-8.1-0.4-1.2-0.8-2.5-1.1-3.7-0.9-2.9-1.9-5.9-3-8.8-0.3-0.9-0.7-1.9-1-2.8-1.3-3.4-2.6-6.8-4-10.2-0.2-0.4-0.3-0.7-0.4-1.1-28.1-66.3-82.8-118.8-151-143.9-0.4-0.1-0.7-0.3-1.1-0.4-3.4-1.2-6.9-2.4-10.4-3.5-0.8-0.2-1.5-0.5-2.3-0.7l-9.3-2.7-3.3-0.9c-2.8-0.7-5.7-1.4-8.5-2l-4.2-0.9c-2.6-0.5-5.2-1-7.8-1.4-1.6-0.3-3.3-0.6-4.9-0.8-0.4-0.1-0.8-0.1-1.2-0.2-57.1-67.9-142.3-108-231.8-108-145.2 0-268.7 102.7-296.9 242.6C126 457.1 89 523.9 89 595.4 89 711.5 183.5 806 299.6 806h162.2c-0.5-3.2-0.9-6.4-0.9-9.8V567.8l-63.7 63.7c-22.9 22.9-60.1 22.9-83 0s-22.9-60.1 0-83l163.9-163.9c22.9-22.9 60.1-22.9 83 0L725 548.5c22.9 22.9 22.9 60.1 0 83-11.5 11.5-26.5 17.2-41.5 17.2s-30-5.7-41.5-17.2l-63.7-63.7v228.4c0 3.3-0.3 6.6-0.9 9.8h99c144.6 0 262.2-117.6 262.2-262.2 0.1-4.4 0-8.7-0.3-13z" p-id="1126"></path></svg>